<svg xmlns="http://www.w3.org/2000/svg" viewBox="828 0 779 717" fill-rule="evenodd" xmlns:c2pa="http://c2pa.org/manifest"><metadata><c2pa:manifest>AAAWgmp1bWIAAAAeanVtZGMycGEAEQAQgAAAqgA4m3EDYzJwYQAAABZcanVtYgAAAEdqdW1kYzJtYQARABCAAACqADibcQN1cm46YzJwYTpkMDViY2NmNy1lYjQ1LTQyNDAtYTAwNS1kNTUyODA1ZDFiNmEAAAADl2p1bWIAAAApanVtZGMyYXMAEQAQgAAAqgA4m3EDYzJwYS5hc3NlcnRpb25zAAAAALxqdW1iAAAARGp1bWRjYm9yABEAEIAAAKoAOJtxE2MycGEuaW5ncmVkaWVudC52MwAAAAAYYzJzaE4ROigj3JRVmJ6mVNP9P4QAAABwY2JvcqNpZGM6Zm9ybWF0bWltYWdlL3N2Zyt4bWxqaW5zdGFuY2VJRHgseG1wOmlpZDo4M2Q2NjgxNy04N2ViLTQ1NjEtODg4Mi1lNGViMmRhNmZjZjdscmVsYXRpb25zaGlwaHBhcmVudE9mAAAB4mp1bWIAAABBanVtZGNib3IAEQAQgAAAqgA4m3ETYzJwYS5hY3Rpb25zLnYyAAAAABhjMnNoN941OQIGm8702Oi/vMA1fgAAAZljYm9yomdhY3Rpb25zgqJmYWN0aW9ua2MycGEub3BlbmVkanBhcmFtZXRlcnOha2luZ3JlZGllbnRzgaJjdXJseC1zZWxmI2p1bWJmPWMycGEuYXNzZXJ0aW9ucy9jMnBhLmluZ3JlZGllbnQudjNkaGFzaFgg3vthjbI+LH9fa0AgIW37BBWUOPJZNKlu5wZWNtL3rFqkZmFjdGlvbngdY29tLmFudGhyb3BpYy5jbGF1ZGUucHJvdmlkZWRqcGFyYW1ldGVyc6F4H2NvbS5hbnRocm9waWMub3JpZ2luLWNvbmZpZGVuY2VndW5rbm93bmtkZXNjcmlwdGlvbnhmQ2xhdWRlIHByb3ZpZGVkIHRoaXMgZmlsZSBhdCB0aGUgcmVxdWVzdCBvZiBhIHVzZXIgYW5kIG1heSBoYXZlIGNyZWF0ZWQgb3IgbW9kaWZpZWQgdGhlIGZpbGUgY29udGVudHMubXNvZnR3YXJlQWdlbnShZG5hbWVmQ2xhdWRlcmFsbEFjdGlvbnNJbmNsdWRlZPUAAADIanVtYgAAAEBqdW1kY2JvcgARABCAAACqADibcRNjMnBhLmhhc2guZGF0YQAAAAAYYzJzaLdTr7U9roQj4N0TFWh3JD8AAACAY2JvcqVjYWxnZnNoYTI1NmNwYWRNAAAAAAAAAAAAAAAAAGRoYXNoWCAMpRmKOLo8CvnXCQnHSBWOMT7dODSfwQVYEsU2tl6xVWRuYW1lbmp1bWJmIG1hbmlmZXN0amV4Y2x1c2lvbnOBomVzdGFydBiTZmxlbmd0aBkeBAAAAj5qdW1iAAAAJ2p1bWRjMmNsABEAEIAAAKoAOJtxA2MycGEuY2xhaW0udjIAAAACD2Nib3KlY2FsZ2ZzaGEyNTZpc2lnbmF0dXJleE1zZWxmI2p1bWJmPS9jMnBhL3VybjpjMnBhOmQwNWJjY2Y3LWViNDUtNDI0MC1hMDA1LWQ1NTI4MDVkMWI2YS9jMnBhLnNpZ25hdHVyZWppbnN0YW5jZUlEeCx4bXA6aWlkOmQxMWNiMDExLTFjYzQtNDQxNC05NzI0LWM0OTVkZThmOTE5MnJjcmVhdGVkX2Fzc2VydGlvbnODomN1cmx4LXNlbGYjanVtYmY9YzJwYS5hc3NlcnRpb25zL2MycGEuaW5ncmVkaWVudC52M2RoYXNoWCDe+2GNsj4sf19rQCAhbfsEFZQ48lk0qW7nBlY20vesWqJjdXJseCpzZWxmI2p1bWJmPWMycGEuYXNzZXJ0aW9ucy9jMnBhLmFjdGlvbnMudjJkaGFzaFggsY1gYKWXIh/IUrPF8uDX+D7p/XynYKRWTWhuCBiVA4GiY3VybHgpc2VsZiNqdW1iZj1jMnBhLmFzc2VydGlvbnMvYzJwYS5oYXNoLmRhdGFkaGFzaFggcwf73D2Q7FZlqRAcTBeOkZS7HdsyJeaSxpt0wj6F7xx0Y2xhaW1fZ2VuZXJhdG9yX2luZm+jZG5hbWVvQW50aHJvcGljIEZpbGVzZ3ZlcnNpb25lMS4wLjBrc3BlY1ZlcnNpb25lMi40LjAAABA4anVtYgAAAChqdW1kYzJjcwARABCAAACqADibcQNjMnBhLnNpZ25hdHVyZQAAABAIY2JvctKEWQISogEmGCFZAgowggIGMIIBjaADAgECAhRA5aAK7sI50L64g/oGQgU9Z1UTADAKBggqhkjOPQQDAzBJMRcwFQYDVQQKEw5BbnRocm9waWMsIFBCQzEuMCwGA1UEAxMlQW50aHJvcGljIENvbnRlbnQgQ3JlZGVudGlhbHMgUm9vdCBDQTAeFw0yNjA4MDcxODQzNTZaFw0yODA4MDYxOTQzNTZaMEQxFzAVBgNVBAoTDkFudGhyb3BpYywgUEJDMSkwJwYDVQQDEyBBbnRocm9waWMgQ2xhdWRlIENvbnRlbnQgU2lnbmluZzBZMBMGByqGSM49AgEGCCqGSM49AwEHA0IABJh6CmvLUBgFFNU0vUKlOVtE6djd17L5SuwX0LemFisBM3dkd/3cyjxFA3Qo5S46fX0/ihY0VZ7mfb9KF703t5OjWDBWMA4GA1UdDwEB/wQEAwIHgDAVBgNVHSUEDjAMBgorBgEEAYPoXgIBMAwGA1UdEwEB/wQCMAAwHwYDVR0jBBgwFoAUzlHiBIFOZFsj+OPEz5o+nMHXXMIwCgYIKoZIzj0EAwMDZwAwZAIwMXMdFJ4BetLLVY7ORuE9noqbbAZOZn/aArXyTwFAZfKrPzxF2vPoJNf1+UCdg1XGAjBwX1zd9WGqYkqmL5SFqw1QySjr1zJfpJM9+1rdDwSPLMOPOjKuiXjoU/pUUeG9RwmhY3BhZFkNngAAAAAAAAAAAAAAAAAAAAAAAAAAAAAAAAAAAAAAAAAAAAAAAAAAAAAAAAAAAAAAAAAAAAAAAAAAAAAAAAAAAAAAAAAAAAAAAAAAAAAAAAAAAAAAAAAAAAAAAAAAAAAAAAAAAAAAAAAAAAAAAAAAAAAAAAAAAAAAAAAAAAAAAAAAAAAAAAAAAAAAAAAAAAAAAAAAAAAAAAAAAAAAAAAAAAAAAAAAAAAAAAAAAAAAAAAAAAAAAAAAAAAAAAAAAAAAAAAAAAAAAAAAAAAAAAAAAAAAAAAAAAAAAAAAAAAAAAAAAAAAAAAAAAAAAAAAAAAAAAAAAAAAAAAAAAAAAAAAAAAAAAAAAAAAAAAAAAAAAAAAAAAAAAAAAAAAAAAAAAAAAAAAAAAAAAAAAAAAAAAAAAAAAAAAAAAAAAAAAAAAAAAAAAAAAAAAAAAAAAAAAAAAAAAAAAAAAAAAAAAAAAAAAAAAAAAAAAAAAAAAAAAAAAAAAAAAAAAAAAAAAAAAAAAAAAAAAAAAAAAAAAAAAAAAAAAAAAAAAAAAAAAAAAAAAAAAAAAAAAAAAAAAAAAAAAAAAAAAAAAAAAAAAAAAAAAAAAAAAAAAAAAAAAAAAAAAAAAAAAAAAAAAAAAAAAAAAAAAAAAAAAAAAAAAAAAAAAAAAAAAAAAAAAAAAAAAAAAAAAAAAAAAAAAAAAAAAAAAAAAAAAAAAAAAAAAAAAAAAAAAAAAAAAAAAAAAAAAAAAAAAAAAAAAAAAAAAAAAAAAAAAAAAAAAAAAAAAAAAAAAAAAAAAAAAAAAAAAAAAAAAAAAAAAAAAAAAAAAAAAAAAAAAAAAAAAAAAAAAAAAAAAAAAAAAAAAAAAAAAAAAAAAAAAAAAAAAAAAAAAAAAAAAAAAAAAAAAAAAAAAAAAAAAAAAAAAAAAAAAAAAAAAAAAAAAAAAAAAAAAAAAAAAAAAAAAAAAAAAAAAAAAAAAAAAAAAAAAAAAAAAAAAAAAAAAAAAAAAAAAAAAAAAAAAAAAAAAAAAAAAAAAAAAAAAAAAAAAAAAAAAAAAAAAAAAAAAAAAAAAAAAAAAAAAAAAAAAAAAAAAAAAAAAAAAAAAAAAAAAAAAAAAAAAAAAAAAAAAAAAAAAAAAAAAAAAAAAAAAAAAAAAAAAAAAAAAAAAAAAAAAAAAAAAAAAAAAAAAAAAAAAAAAAAAAAAAAAAAAAAAAAAAAAAAAAAAAAAAAAAAAAAAAAAAAAAAAAAAAAAAAAAAAAAAAAAAAAAAAAAAAAAAAAAAAAAAAAAAAAAAAAAAAAAAAAAAAAAAAAAAAAAAAAAAAAAAAAAAAAAAAAAAAAAAAAAAAAAAAAAAAAAAAAAAAAAAAAAAAAAAAAAAAAAAAAAAAAAAAAAAAAAAAAAAAAAAAAAAAAAAAAAAAAAAAAAAAAAAAAAAAAAAAAAAAAAAAAAAAAAAAAAAAAAAAAAAAAAAAAAAAAAAAAAAAAAAAAAAAAAAAAAAAAAAAAAAAAAAAAAAAAAAAAAAAAAAAAAAAAAAAAAAAAAAAAAAAAAAAAAAAAAAAAAAAAAAAAAAAAAAAAAAAAAAAAAAAAAAAAAAAAAAAAAAAAAAAAAAAAAAAAAAAAAAAAAAAAAAAAAAAAAAAAAAAAAAAAAAAAAAAAAAAAAAAAAAAAAAAAAAAAAAAAAAAAAAAAAAAAAAAAAAAAAAAAAAAAAAAAAAAAAAAAAAAAAAAAAAAAAAAAAAAAAAAAAAAAAAAAAAAAAAAAAAAAAAAAAAAAAAAAAAAAAAAAAAAAAAAAAAAAAAAAAAAAAAAAAAAAAAAAAAAAAAAAAAAAAAAAAAAAAAAAAAAAAAAAAAAAAAAAAAAAAAAAAAAAAAAAAAAAAAAAAAAAAAAAAAAAAAAAAAAAAAAAAAAAAAAAAAAAAAAAAAAAAAAAAAAAAAAAAAAAAAAAAAAAAAAAAAAAAAAAAAAAAAAAAAAAAAAAAAAAAAAAAAAAAAAAAAAAAAAAAAAAAAAAAAAAAAAAAAAAAAAAAAAAAAAAAAAAAAAAAAAAAAAAAAAAAAAAAAAAAAAAAAAAAAAAAAAAAAAAAAAAAAAAAAAAAAAAAAAAAAAAAAAAAAAAAAAAAAAAAAAAAAAAAAAAAAAAAAAAAAAAAAAAAAAAAAAAAAAAAAAAAAAAAAAAAAAAAAAAAAAAAAAAAAAAAAAAAAAAAAAAAAAAAAAAAAAAAAAAAAAAAAAAAAAAAAAAAAAAAAAAAAAAAAAAAAAAAAAAAAAAAAAAAAAAAAAAAAAAAAAAAAAAAAAAAAAAAAAAAAAAAAAAAAAAAAAAAAAAAAAAAAAAAAAAAAAAAAAAAAAAAAAAAAAAAAAAAAAAAAAAAAAAAAAAAAAAAAAAAAAAAAAAAAAAAAAAAAAAAAAAAAAAAAAAAAAAAAAAAAAAAAAAAAAAAAAAAAAAAAAAAAAAAAAAAAAAAAAAAAAAAAAAAAAAAAAAAAAAAAAAAAAAAAAAAAAAAAAAAAAAAAAAAAAAAAAAAAAAAAAAAAAAAAAAAAAAAAAAAAAAAAAAAAAAAAAAAAAAAAAAAAAAAAAAAAAAAAAAAAAAAAAAAAAAAAAAAAAAAAAAAAAAAAAAAAAAAAAAAAAAAAAAAAAAAAAAAAAAAAAAAAAAAAAAAAAAAAAAAAAAAAAAAAAAAAAAAAAAAAAAAAAAAAAAAAAAAAAAAAAAAAAAAAAAAAAAAAAAAAAAAAAAAAAAAAAAAAAAAAAAAAAAAAAAAAAAAAAAAAAAAAAAAAAAAAAAAAAAAAAAAAAAAAAAAAAAAAAAAAAAAAAAAAAAAAAAAAAAAAAAAAAAAAAAAAAAAAAAAAAAAAAAAAAAAAAAAAAAAAAAAAAAAAAAAAAAAAAAAAAAAAAAAAAAAAAAAAAAAAAAAAAAAAAAAAAAAAAAAAAAAAAAAAAAAAAAAAAAAAAAAAAAAAAAAAAAAAAAAAAAAAAAAAAAAAAAAAAAAAAAAAAAAAAAAAAAAAAAAAAAAAAAAAAAAAAAAAAAAAAAAAAAAAAAAAAAAAAAAAAAAAAAAAAAAAAAAAAAAAAAAAAAAAAAAAAAAAAAAAAAAAAAAAAAAAAAAAAAAAAAAAAAAAAAAAAAAAAAAAAAAAAAAAAAAAAAAAAAAAAAAAAAAAAAAAAAAAAAAAAAAAAAAAAAAAAAAAAAAAAAAAAAAAAAAAAAAAAAAAAAAAAAAAAAAAAAAAAAAAAAAAAAAAAAAAAAAAAAAAAAAAAAAAAAAAAAAAAAAAAAAAAAAAAAAAAAAAAAAAAAAAAAAAAAAAAAAAAAAAAAAAAAAAAAAAAAAAAAAAAAAAAAAAAAAAAAAAAAAAAAAAAAAAAAAAAAAAAAAAAAAAAAAAAAAAAAAAAAAAAAAAAAAAAAAAAAAAAAAAAAAAAAAAAAAAAAAAAAAAAAAAAAAAAAAAAAAAAAAAAAAAAAAAAAAAAAAAAAAAAAAAAAAAAAAAAAAAAAAAAAAAAAAAAAAAAAAAAAAAAAAAAAAAAAAAAAAAAAAAAAAAAAAAAAAAAAAAAAAAAAAAAAAAAAAAAAAAAAAAAAAAAAAAAAAAAAAAAAAAAAAAAAAAAAAAAAAAAAAAAAAAAAAAAAAAAAAAAAAAAAAAAAAAAAAAAAAAAAAAAAAAAAAAAAAAAAAAAAAAAAAAAAAAAAAAAAAAAAAAAAAAAAAAAAAAAAAAAAAAAAAAAAAAAAAAAAAAAAAAAAAAAAAAAAAAAAAAAAAAAAAAAAAAAAAAAAAAAAAAAAAAAAAAAAAAAAAAAAAAAAAAAAAAAAAAAAAAAAAAAAAAAAAAAAAAAAAAAAAAAAAAAAAAAAAAAAAAAAAAAAAAAAAAAAAAAAAAAAAAAAAAAAAAAAAAAAAAAAAAAAAAAAAAAAAAAAAAAAAAAAAAAAAAAAAAAAAAAAAAAAAAAAAAAAAAAAAAAAAAAAAAAAAAAAAAAAAAAAAAAAAAAAAAAAAAAAAAAAAAAAAAAAAAAAAAAAAAAAAAAAAAAAAAAAAAAAAAAAAAAAAAAAAAAAAAAAAAAAAAAAAAAAAAAAAAAAAAAAAAAAAAAAAAAAAAAAAAAAAAAAAAAAAAAAAAAAAAAAAAAAAAAAAAAAAAAAAAAAAAAAAAAAAAAAAAAAAAAAAAAAAAAAAAAAAAAAAAAAAAAAAAAAAAAAAAAAAAAAAAAAAAAAAAAAAAAAAAAAAAAAAAAAAAAAAAAAAAAAAAAAAAAAAAAAAAAAAAAAAAAAAAAAAAAAAAAAAAAAAAAAAAAAAAAAAAAAAAAAAAAAAAAAAAAAAAAAAAAAAAAAAAAAAAAAAAAAAAAAAAAAAAAAAAAAAAAAAAAAAAAAAAAAAAAAAAAAAAAAAAAAAAAAAAAAAAAAAAAAAAAAAAAAAAAAAAAAAAAAAAAAAAAAAAAAAAAAAAAAAAAAAAAAAAAAAAAAAAAAAAAAAAAAAAAAAAAAAAAAAAAAAAAAAAAAAAAAAAAAAAAAAAAAAAAAAAAAAAAAAAAAAAAAAAAAAAAAAAAAAAAAAAAAAAAAAAAAAAAAAAAAAAAAAAAAAAAAAAAAAAAAAAAAAAAAAAAAAAAAAAAAAAAAAAAAAAAAAAAAAAAAAAAAAAAAAAAAAAAAAAAAAAAAAAAAAAAAAAAAAAAAAAAAAAAAAAAAAAAPZYQIyc83kQD3Y1fowCF00N6cF6hjsUcmJhQxh8XIITKU6y3jSf3h2Jz7QnAO7H1tX5Pm3XQ1Spaho5CbLKVKe4XXM=</c2pa:manifest></metadata><path fill="#7c5d32" d="M1405 49c0-18-1-18 1-20 2-2 3-1 20-1 20 0 14 9 13 29 0 12-6 5-23 6-7-2-7-2-13 0-18-1-18 1-21-2-1 0-2-19-2-20-3-5-544 1-549-3-15-13 52-10 57-10 500 0 500 0 501 1 8 5-9 22 16 24 5 1 5 1 10-1 1 0 12 0 13-1 5-7-9-24-14-2-9 0-8 0-9 0z"></path><path fill="#7c5d32" d="M1583 175c3 16 3 16 0 31-6 2-6 1-20 1-1 0-2 0-3-1 0 28 18 10 23 17 1 1 4 478-2 480-14 5-7-8-7-195 0-272 0-276-6-276-12-1-18 5-18-7 0-10 0-9 0-19 2-5 2-5 0-10 0-20-2-21 3-23 15-4 16-4 30 2z"></path><path fill="#7c5d32" d="M1548 100c6 2 6 2 12 1 19-1 20-3 23 1 3 3 2 4 1 52 0 10-45 2-47 8-9 22-13 31 10 35 0 4-1 4-2 10-2 0-19 1-19-3-2-54 1-55 5-55 29-1 43 10 43-19 0-14 2-19-11-19-7-2-7-2-13-1-4 0-7 0-11 0 0-3 0-6 0-9 3-1 6-1 9-1z"></path><path fill="#7c5d32" d="M1502 49c0-1-1-8-1-8-2-3-30-2-33-2-7 0-5 36-5 41 0 10-28 7-50 7-14 0-4-12-10-24 6-2 6-2 13 0-5 22 9 14 31 14 13 0 6-8 6-39 0-14 11-10 52-10 11 0 6 18 6 21-3 0-6 0-9 0z"></path><path fill="#7c5d32" d="M1526 51c0-1 0-18 0-18 0-7 23-5 53-5 4 0 6 1 5 52 0 10-16 6-21 6 0-1-1-1-1-2 0-1 0-1 1-7 8-2 11 1 11-7 0-3 0-30-3-31-24-7-36-12-35 13-2 6-2 6 0 12 0 5 1 9 1 13-7 1-7 1-13-1 1-8 2-8 2-14 1-5 1-5 0-11z"></path><path fill="#7c5d32" d="M1500 52c6 2 6 3 13 0 1 0 6 0 13-1 1 6 1 6 0 11-12 0-12 1-13 0-2 0-4-1-6-1-4 1-17 1-18 3-5 9-2 11 8 13 6 4 6 4 5 11-8 0-8-1-15-1-11 0-11-4-10-28 0-9 17-7 23-7z"></path><path fill="#d8b57c" d="M1536 52c-1-25 11-20 35-13 3 1 3 28 3 31 0 8-3 5-11 7l-3-2c0-1-1-20-1-20-2-5-3-3-17-3l-6 0z"></path><path fill="#7c5d32" d="M1536 91c0 3 0 5 0 8-2 7-2 6 0 13 0 1 0 12 3 13 9 0 10-2 11-10 5-1 5-1 10 0-1 16 2 17-3 20-24 13-31 4-31-23l1-6c-4-12-4-19 9-15z"></path><path fill="#7c5d32" d="M1507 61c2 0 4 1 6 1-2 14-4 13-2 26 2 9 0 11 4 12 7 2 7 2 12 6l-1 6c-17-1-25 4-24-13l0-11c1-7 1-7-5-11 1-1 4-1 4-2 2-4-1-4 1-8 2-4 4-2 5-6z"></path><path fill="#7c5d32" d="M1524 76c6 2 6 2 13 1 1 0 1 0 13-2 0 1 2 5 2 5 1 16 8-4 8-5l3 2c-1 6-1 6-1 7 0 1 1 1 1 2-8 5-4 6-3 15-6 1-6 1-12-1 0-1 4-11 1-14 0-1-1 1-12 0-11-1-11 1-22 0 0-8 0-8 0-9 4-3 5 2 9-1z"></path><path fill="#7c5d32" d="M1542 52c14 0 15-2 17 3 0 0 1 19 1 20 0 1-7 21-8 5 0 0-2-4-2-5 0-10-1-12-11-12 0-1 0-6 0-6 1-3 2-2 3-5z"></path><path fill="#d8b57c" d="M1583 175c25-11 6 17 9 20 2 3 8 2 3 9-1 1-1 0-5 2-5 4-6 0-7 0 3-15 3-15 0-31z"></path><path fill="#d5b279" d="M1515 86c11 1 11-1 22 0l-1 5c-13-4-13 3-9 15-5-4-5-4-12-6-4-1-2-3-4-12l4-2z"></path><path fill="#d5b279" d="M1513 62c1 1 1 0 13 0 0 6-1 6-2 14-4 3-5-2-9 1 0 1 0 1 0 9l-4 2c-2-13 0-12 2-26z"></path><path fill="#d5b279" d="M1507 61c-1 4-3 2-5 6-2 4 1 4-1 8 0 1-3 1-4 2-10-2-13-4-8-13 1-2 14-2 18-3z"></path><path fill="#d8b57c" d="M1537 86c11 1 12-1 12 0 3 3-1 13-1 14-3 0-6 0-9 1l-3-2c0-3 0-5 0-8l1-5z"></path><path fill="#d8b57c" d="M1539 110c4 0 7 0 11 0l0 5c-1 8-2 10-11 10-3-1-3-12-3-13l3-2z"></path><path fill="#d5b279" d="M1560 196c0-1 1-19 12-12 3 2 3 12-1 13-3 0-2 0-5 0-3 1-3 0-6-1z"></path><path fill="#d5b279" d="M1539 63c10 0 11 2 11 12-12 2-12 2-13 2 0-4-1-8-1-13l3-1z"></path><path fill="#d5b279" d="M1414 49c5-22 19-5 14 2-1 1-12 1-13 1l-1-3z"></path><path fill="#d8b57c" d="M1564 705c0 1-1 19-6 8-2-5 6-30 6-8z"></path><path fill="#d8b57c" d="M1474 99l0 3c-5 3-5 3-6 3-11 6 7-25 8-11 0 1-2 3-2 5z"></path><path fill="#d8b57c" d="M1489 96c0 2 0 4 0 6-12 4-12 4-13 5 0-2-1-4-2-5l0-3c2 0 7 0 15-3z"></path><path fill="#b08952" d="M1550 110c6-1 6-1 13 1-1 1-2 2-3 4-5-1-5-1-10 0l0-5z"></path><path fill="#a57e48" d="M1536 52l6 0c-1 3-2 2-3 5 0 0 0 5 0 6l-3 1c-2-6-2-6 0-12z"></path><path fill="#a57e48" d="M1536 99l3 2c0 3 0 6 0 9l-3 2c-2-7-2-6 0-13z"></path><path fill="#a57e48" d="M1502 49c3 0 6 0 9 0l2 3c-7 3-7 2-13 0l2-3z"></path><path fill="#a57e48" d="M1550 196c2 5 2 5 0 10-2 1-3 1-5 1 1-6 2-6 2-10l3-1z"></path><path fill="#d8b57c" d="M1395 80c-14-8-1-11 0-10 0 1 0 1 0 10z"></path><path fill="#b08952" d="M1405 49c1 0 0 0 9 0l1 3c-5 2-5 2-10 1 0-1 0-3 0-4z"></path></svg>